<svg xmlns="http://www.w3.org/2000/svg" viewBox="0 0 300 400" width="100%" height="100%">
  <defs>
    <linearGradient id="bg2" x1="0%" y1="0%" x2="0%" y2="100%">
      <stop offset="0%" stop-color="#EFEAE0" />
      <stop offset="100%" stop-color="#DCD6C8" />
    </linearGradient>
  </defs>
  <rect width="300" height="400" fill="url(#bg2)"/>
  <path d="M0 250 L300 230 L300 400 L0 400 Z" fill="#D2CBBB" opacity="0.5"/>
  <line x1="0" y1="250" x2="300" y2="230" stroke="#2D9E5E" stroke-width="4"/>
  
  <!-- Runner 1 (Back) -->
  <g fill="#475569" opacity="0.6">
    <circle cx="90" cy="130" r="14"/>
    <path d="M80 148 L105 146 L98 210 L75 205 Z"/>
    <path d="M75 205 L60 255 L95 250 Z"/>
    <path d="M98 210 L120 260 L140 255 Z"/>
  </g>
  <rect x="80" y="158" width="22" height="18" rx="2" fill="#FFF" opacity="0.8"/>
  <text x="91" y="170" font-family="monospace" font-size="7" font-weight="bold" fill="#111" text-anchor="middle">1092</text>
  
  <!-- Runner 2 (Lead) -->
  <g fill="#111111">
    <circle cx="180" cy="100" r="17"/>
    <path d="M165 122 L200 118 L190 200 L158 194 Z"/>
    <path d="M195 120 L230 145 L215 160 L188 132 Z"/>
    <path d="M162 195 L125 250 L80 270 L130 260 Z"/>
    <path d="M188 198 L218 260 L255 310 L238 318 Z"/>
  </g>
  <rect x="162" y="136" width="32" height="24" rx="3" fill="#FFFFFF" stroke="#111" stroke-width="1.5"/>
  <rect x="162" y="136" width="32" height="5" fill="#2D9E5E"/>
  <text x="178" y="153" font-family="monospace" font-size="9" font-weight="bold" fill="#111" text-anchor="middle">B-3304</text>
</svg>
